<?xml version="1.0" standalone="no"?>
<!DOCTYPE svg PUBLIC "-//W3C//DTD SVG 20010904//EN"
 "http://www.w3.org/TR/2001/REC-SVG-20010904/DTD/svg10.dtd">
<svg version="1.0" xmlns="http://www.w3.org/2000/svg"
 width="140.000000pt" height="140.000000pt" viewBox="0 0 140.000000 140.000000"
 preserveAspectRatio="xMidYMid meet">

<g transform="translate(0.000000,140.000000) scale(0.100000,-0.100000)"
fill="#000000" stroke="none">
<path d="M555 1384 c-40 -7 -111 -34 -165 -60 -80 -39 -109 -61 -182 -134 -72
-73 -94 -103 -131 -181 -102 -211 -100 -428 5 -632 56 -108 182 -236 283 -289
87 -45 180 -74 268 -83 l67 -7 0 341 0 341 65 0 65 0 0 55 c0 48 2 55 20 55
17 0 20 -7 20 -51 0 -42 -3 -52 -20 -56 -19 -5 -20 -14 -20 -169 l0 -164 190
0 190 0 0 40 0 40 -145 0 -145 0 0 340 0 340 -110 0 -110 0 0 145 0 145 -37
-1 c-21 0 -69 -7 -108 -15z m145 -324 l0 -50 -65 0 -65 0 0 -110 0 -110 65 0
64 0 3 113 3 112 60 0 60 0 3 -112 3 -113 -66 0 -65 0 0 -56 0 -55 -62 2 -63
3 -3 -157 -3 -157 -49 0 -50 0 0 370 0 370 115 0 115 0 0 -50z m-340 -213 l0
-52 -60 -33 c-33 -19 -60 -36 -60 -40 0 -4 27 -22 60 -40 l60 -33 0 -54 0 -54
-137 85 c-75 46 -141 88 -145 92 -5 5 263 180 280 182 1 0 2 -24 2 -53z"/>
<path d="M1020 872 l0 -60 75 -42 c41 -24 72 -47 69 -51 -2 -5 -36 -25 -74
-46 l-70 -38 0 -57 c0 -32 2 -58 5 -58 3 0 79 46 170 101 l165 102 -158 96
c-86 53 -163 100 -169 104 -10 6 -13 -6 -13 -51z"/>
</g>
</svg>
